<svg width="445" height="150" viewBox="0 0 445 150" fill="none" xmlns="http://www.w3.org/2000/svg">
<path d="M3.3 74.8C3.3 67.8667 4.8 61.7 7.8 56.3C10.8 50.8333 14.9667 46.6 20.3 43.6C25.7 40.5333 31.8 39 38.6 39C46.9333 39 54.0667 41.2 60 45.6C65.9333 50 69.9 56 71.9 63.6H53.1C51.7 60.6667 49.7 58.4333 47.1 56.9C44.5667 55.3667 41.6667 54.6 38.4 54.6C33.1333 54.6 28.8667 56.4333 25.6 60.1C22.3333 63.7667 20.7 68.6667 20.7 74.8C20.7 80.9333 22.3333 85.8333 25.6 89.5C28.8667 93.1667 33.1333 95 38.4 95C41.6667 95 44.5667 94.2333 47.1 92.7C49.7 91.1667 51.7 88.9333 53.1 86H71.9C69.9 93.6 65.9333 99.6 60 104C54.0667 108.333 46.9333 110.5 38.6 110.5C31.8 110.5 25.7 109 20.3 106C14.9667 102.933 10.8 98.7 7.8 93.3C4.8 87.9 3.3 81.7333 3.3 74.8ZM199.446 62.4C199.446 66.4667 198.513 70.2 196.646 73.6C194.779 76.9333 191.913 79.6333 188.046 81.7C184.179 83.7667 179.379 84.8 173.646 84.8H163.046V110H145.946V39.8H173.646C179.246 39.8 183.979 40.7667 187.846 42.7C191.713 44.6333 194.613 47.3 196.546 50.7C198.479 54.1 199.446 58 199.446 62.4ZM172.346 71.2C175.613 71.2 178.046 70.4333 179.646 68.9C181.246 67.3667 182.046 65.2 182.046 62.4C182.046 59.6 181.246 57.4333 179.646 55.9C178.046 54.3667 175.613 53.6 172.346 53.6H163.046V71.2H172.346ZM225.448 39.8V110H208.348V39.8H225.448ZM288.341 39.8V53.5H269.741V110H252.641V53.5H234.041V39.8H288.341ZM330.123 110.7C323.523 110.7 317.456 109.167 311.923 106.1C306.456 103.033 302.089 98.7667 298.823 93.3C295.623 87.7667 294.023 81.5667 294.023 74.7C294.023 67.8333 295.623 61.6667 298.823 56.2C302.089 50.7333 306.456 46.4667 311.923 43.4C317.456 40.3333 323.523 38.8 330.123 38.8C336.723 38.8 342.756 40.3333 348.223 43.4C353.756 46.4667 358.089 50.7333 361.223 56.2C364.423 61.6667 366.023 67.8333 366.023 74.7C366.023 81.5667 364.423 87.7667 361.223 93.3C358.023 98.7667 353.689 103.033 348.223 106.1C342.756 109.167 336.723 110.7 330.123 110.7ZM330.123 95.1C335.723 95.1 340.189 93.2333 343.523 89.5C346.923 85.7667 348.623 80.8333 348.623 74.7C348.623 68.5 346.923 63.5667 343.523 59.9C340.189 56.1667 335.723 54.3 330.123 54.3C324.456 54.3 319.923 56.1333 316.523 59.8C313.189 63.4667 311.523 68.4333 311.523 74.7C311.523 80.9 313.189 85.8667 316.523 89.6C319.923 93.2667 324.456 95.1 330.123 95.1ZM438.336 110H421.236L392.636 66.7V110H375.536V39.8H392.636L421.236 83.3V39.8H438.336V110Z" fill="white"/>
<path d="M103.856 72L117.713 111H90L103.856 72Z" fill="#0500FF"/>
<path d="M97.2127 41.6779L109 47L87 110.086L71.7309 110.086L97.2127 41.6779Z" fill="white"/>
<path d="M97 41L111.022 41L136.947 109.242L121.5 109.242L97 41Z" fill="white"/>
</svg>
